<svg width="165" height="37" viewBox="0 0 165 37" fill="none" xmlns="http://www.w3.org/2000/svg">
<g clip-path="url(#clip0_181_703)">
<path d="M7.10693 29.1161C7.10693 29.0077 8.09452 25.9414 8.2116 25.6864C8.52262 25.0088 9.03724 24.4052 9.63186 24.0205C9.89939 23.8475 10.7158 23.4585 10.8115 23.4585C10.8304 23.4585 11.9162 24.6005 13.2244 25.9964C14.5326 27.3924 15.7364 28.6715 15.8996 28.839L16.1962 29.1436H11.6516C9.15202 29.1436 7.10693 29.1312 7.10693 29.1161ZM14.2359 26.1813C12.7097 24.553 11.461 23.2091 11.461 23.1949C11.461 23.1655 13.6924 22.1983 13.7621 22.1973C13.7973 22.1969 17.3733 28.3325 17.7225 28.9923L17.8026 29.1436L17.4067 29.1427L17.0108 29.1418L14.2359 26.1813ZM19.3221 28.9923C19.6713 28.3325 23.2473 22.1969 23.2825 22.1973C23.3709 22.1985 25.5747 23.1658 25.5709 23.2018C25.5688 23.222 24.3221 24.5667 22.8004 26.1902L20.0338 29.1418L19.6379 29.1427L19.242 29.1436L19.3221 28.9923ZM21.1676 28.8164C21.3405 28.6365 22.543 27.3574 23.8399 25.9739C25.1368 24.5904 26.2135 23.4585 26.2326 23.4585C26.3309 23.4585 27.1476 23.849 27.4258 24.029C28.0136 24.4092 28.5203 25.0058 28.8334 25.6864C28.952 25.9442 29.9377 29.0037 29.9377 29.114C29.9377 29.1303 27.8937 29.1436 25.3955 29.1436H20.8533L21.1676 28.8164ZM18.015 28.275C17.7538 27.8221 17.3268 27.0829 17.0663 26.6322L16.5925 25.8128L17.4657 24.8448C18.3305 23.8862 18.3406 23.8768 18.5223 23.8768C18.704 23.8768 18.7141 23.8862 19.5789 24.8448L20.4521 25.8128L19.9783 26.6322C19.7178 27.0829 19.2908 27.8221 19.0296 28.275C18.7683 28.7279 18.5401 29.0984 18.5223 29.0984C18.5045 29.0984 18.2763 28.7279 18.015 28.275ZM15.3213 23.6112C14.7978 22.7051 14.3809 21.9453 14.3948 21.9228C14.4088 21.9002 14.4983 21.8584 14.5938 21.8297L14.7674 21.7777L16.2726 22.6229C17.1005 23.0877 17.7914 23.4811 17.8079 23.4971C17.8245 23.513 17.4859 23.916 17.0556 24.3924L16.2732 25.2587L15.3213 23.6112ZM20.0038 24.4111C19.5901 23.9492 19.2482 23.5527 19.2438 23.5299C19.2394 23.5072 19.9202 23.1037 20.7566 22.6332L22.2774 21.7777L22.4509 21.8297C22.5463 21.8584 22.6359 21.9003 22.6499 21.9229C22.6708 21.9567 20.8746 25.1335 20.7838 25.2233C20.7684 25.2385 20.4173 24.8731 20.0038 24.4111ZM16.8303 22.2418L15.1609 21.3005L15.1498 20.9018L15.1388 20.5031L15.2401 20.6376C15.8682 21.472 16.7014 22.1276 17.4791 22.3993C18.9906 22.9274 20.5645 22.2752 21.8375 20.5933C21.8999 20.5109 21.9048 20.5374 21.8948 20.9018L21.8837 21.3006L20.2369 22.2266C19.3311 22.736 18.5697 23.1595 18.5449 23.1679C18.52 23.1762 17.7485 22.7595 16.8303 22.2418ZM17.8681 21.8822C17.2533 21.6986 16.7657 21.3921 16.2407 20.8593C15.4931 20.1005 14.8644 19.0294 14.4227 17.7621L14.238 17.2319L15.1055 17.2312C15.997 17.2306 16.1346 17.2075 16.2385 17.041C16.2752 16.9822 16.2338 16.6376 16.0701 15.6423C15.9507 14.9159 15.8425 14.2771 15.8297 14.2226C15.8078 14.1286 15.8395 14.1351 16.4538 14.3503C17.2424 14.6267 18.2309 14.8857 18.4971 14.8857C19.1236 14.8857 21.7047 14.0244 22.9124 13.4124C23.034 13.3508 23.1467 13.3135 23.1628 13.3296C23.23 13.3965 23.2196 14.9744 23.1482 15.5246C22.8266 18.0061 21.6842 20.2912 20.2301 21.3618C19.4945 21.9033 18.5992 22.1006 17.8681 21.8822ZM14.1448 16.5664C14.1422 16.4703 14.6144 13.6856 14.6375 13.6606C14.6524 13.6444 14.7759 13.685 14.9121 13.7508L15.1597 13.8704L15.3718 15.1338C15.4884 15.8286 15.5851 16.4429 15.5867 16.4987C15.5895 16.5999 15.587 16.6002 14.8676 16.6002C14.4705 16.6002 14.1452 16.585 14.1448 16.5664ZM13.1401 15.5993C12.8153 15.1666 12.6405 14.6198 12.6378 14.0283C12.6356 13.5431 12.7366 13.2391 12.9454 13.1022C13.1088 12.9952 13.3083 13.0455 13.2715 13.1844C13.2069 13.428 13.1896 14.4976 13.2408 15.0814C13.2708 15.4248 13.2858 15.7155 13.2739 15.7273C13.2621 15.7391 13.2019 15.6815 13.1401 15.5993ZM23.7866 15.3131C23.8314 14.7723 23.8331 13.5932 23.7895 13.2958C23.7599 13.0943 23.7645 13.0805 23.8703 13.054C24.0311 13.0136 24.1983 13.1404 24.3123 13.3892C24.4379 13.6633 24.4439 14.3251 24.3247 14.7277C24.2294 15.0493 23.966 15.5671 23.8393 15.6817C23.7497 15.7628 23.7495 15.7611 23.7866 15.3131ZM13.8348 14.0171C13.8299 13.4487 13.8636 13.3241 13.957 13.5659C13.9934 13.6599 13.985 13.7992 13.9224 14.1412L13.8397 14.5924L13.8348 14.0171ZM17.8229 14.1369C17.3258 14.0017 16.6775 13.7912 16.2062 13.6119C15.8632 13.4815 15.8539 13.474 15.8904 13.3581C15.9614 13.1324 15.9337 12.6196 15.8403 12.4309C15.7342 12.2165 15.5087 11.9846 15.3292 11.9051C15.1971 11.8466 15.1959 11.8426 15.1672 11.3736C15.1186 10.5791 15.1256 10.4541 15.2173 10.481C15.2607 10.4938 16.0083 10.7287 16.8786 11.003C17.7489 11.2772 18.4882 11.5016 18.5215 11.5016C18.5692 11.5016 21.7737 10.5068 22.6636 10.2157L22.8569 10.1525L22.9712 10.4097C23.1319 10.7715 23.2933 11.3484 23.3569 11.7881C23.4084 12.1445 23.4061 12.1727 23.3077 12.3759C23.209 12.5799 23.1803 12.6008 22.6569 12.8512C21.1462 13.574 19.0952 14.2593 18.4686 14.2507C18.3368 14.2488 18.0463 14.1977 17.8229 14.1369ZM14.8225 13.0423C14.5894 12.9381 14.4332 12.8408 14.4241 12.7943C14.416 12.7523 14.48 12.6473 14.5663 12.561C14.6831 12.4441 14.7619 12.404 14.8748 12.404C15.0639 12.404 15.2527 12.569 15.3129 12.7869C15.3581 12.9506 15.3228 13.1782 15.2486 13.2008C15.2252 13.2079 15.0334 13.1366 14.8225 13.0423ZM13.7569 12.4246C13.5864 12.1636 13.7087 11.3049 14.0265 10.5316C14.1825 10.152 14.1929 10.1447 14.4447 10.2404C14.5517 10.2811 14.5518 10.2815 14.5518 11.0664V11.8517L14.4228 11.9051C14.2701 11.9683 14.0028 12.2376 13.9087 12.423L13.8419 12.5547L13.7569 12.4246ZM17.0559 10.4188C16.2866 10.173 15.647 9.97078 15.6346 9.96945C15.6222 9.96812 16.0588 9.7256 16.6047 9.43057L17.5973 8.89414L17.7059 9.00789C17.8807 9.19094 18.1893 9.30363 18.5242 9.30669C19.0654 9.31162 19.5188 8.99328 19.5893 8.55887C19.6433 8.22636 19.3499 7.83207 18.9397 7.68571C18.4332 7.50493 17.7046 7.74612 17.5334 8.15125C17.4908 8.25204 17.2301 8.41012 16.1564 8.98622C15.4279 9.37705 14.8169 9.69686 14.7985 9.69686C14.7498 9.69686 11.0193 8.52001 10.9581 8.48536C10.9084 8.45716 18.3838 6.08521 18.5223 6.08521C18.6611 6.08521 26.1361 8.4572 26.0865 8.4855C26.0053 8.53178 18.5651 10.8702 18.5068 10.8678C18.4781 10.8666 17.8252 10.6645 17.0559 10.4188ZM18.1936 8.62404C17.9411 8.46782 18.1309 8.25435 18.5223 8.25435C18.768 8.25435 18.9464 8.33647 18.9639 8.45769C18.9946 8.66899 18.4547 8.78558 18.1936 8.62404Z" fill="#14096D" fill-opacity="0.898039"/>
<path d="M18.5001 36.6669C28.5334 36.6669 36.667 28.5333 36.667 18.5C36.667 8.46671 28.5334 0.33313 18.5001 0.33313C8.46684 0.33313 0.333252 8.46671 0.333252 18.5C0.333252 28.5333 8.46684 36.6669 18.5001 36.6669Z" stroke="#4F44A3" stroke-width="0.5"/>
<path d="M31.5926 5.49266C24.4088 -1.73822 12.7235 -1.77643 5.49258 5.40731C-1.73831 12.5911 -1.77652 24.2764 5.40723 31.5073C12.591 38.7382 24.2763 38.7764 31.5072 31.5927C38.7381 24.4089 38.7763 12.7235 31.5926 5.49266Z" stroke="#4F44A3" stroke-width="0.0888355"/>
<path d="M25.2516 8.96753C28.5316 11.1528 30.6927 14.885 30.6927 19.1219C30.6927 21.4211 30.0564 23.5716 28.9501 25.407M11.7486 8.96753C8.46848 11.1528 6.30737 14.885 6.30737 19.1219C6.30737 21.4211 6.94375 23.5716 8.05002 25.407M11.904 29.3781C13.8055 30.6035 16.0697 31.3146 18.5001 31.3146C20.9304 31.3146 23.1946 30.6035 25.0961 29.3781" stroke="#4F44A3" stroke-opacity="0.898039" stroke-width="0.5"/>
<path d="M17.9699 1.78366C17.9165 1.78273 17.8617 1.78418 17.8052 1.78808C17.6003 1.80223 17.4164 1.84972 17.2537 1.93053C17.0909 2.01134 16.9705 2.12193 16.8925 2.26227C16.8144 2.40123 16.7807 2.54754 16.7914 2.70125C16.801 2.84111 16.8451 2.96535 16.9236 3.07403C17.0033 3.18122 17.1184 3.2679 17.2691 3.33403C17.3854 3.38583 17.5857 3.436 17.8701 3.48454C18.1544 3.5317 18.3386 3.56843 18.4225 3.59463C18.5532 3.6343 18.6488 3.68816 18.7091 3.75634C18.7694 3.82314 18.8028 3.90431 18.8094 3.99986C18.8159 4.09402 18.7929 4.18334 18.7403 4.26767C18.6889 4.35052 18.606 4.41884 18.4915 4.47266C18.3769 4.52649 18.2428 4.5587 18.0891 4.56931C17.916 4.58126 17.7581 4.56221 17.6155 4.51222C17.4728 4.46086 17.3649 4.38899 17.2917 4.29664C17.2199 4.20282 17.1698 4.08041 17.1412 3.92933L16.7633 3.98884C16.7829 4.19202 16.851 4.37092 16.9674 4.52567C17.0851 4.67894 17.2395 4.78939 17.4306 4.8569C17.6231 4.92431 17.8572 4.94845 18.1327 4.92942C18.3501 4.91441 18.5426 4.86146 18.7103 4.77058C18.8792 4.67821 19.0051 4.5575 19.0881 4.40847C19.1709 4.25805 19.2067 4.10184 19.1956 3.93983C19.1843 3.77642 19.1321 3.63535 19.0391 3.51656C18.9459 3.39637 18.8079 3.30155 18.625 3.23209C18.4993 3.18511 18.2698 3.13621 17.9365 3.08548C17.6045 3.03326 17.3973 2.97455 17.3149 2.90928C17.2311 2.84411 17.1855 2.75686 17.1779 2.64746C17.1692 2.52145 17.2172 2.41025 17.3219 2.31398C17.4278 2.21623 17.6026 2.15895 17.8464 2.14212C18.0804 2.12596 18.2604 2.16298 18.3862 2.25308C18.5135 2.34308 18.5941 2.48357 18.6282 2.67461L19.0125 2.61883C18.9932 2.44068 18.9324 2.28425 18.8299 2.14941C18.7274 2.01457 18.587 1.91711 18.409 1.85705C18.2764 1.8109 18.13 1.78643 17.9699 1.78366ZM15.5713 2.12572L13.598 2.71417L14.4704 5.63924L14.8574 5.52377L14.4612 4.19497L15.8339 3.78558L15.731 3.44039L14.3582 3.84978L14.0881 2.94398L15.6743 2.47092L15.5713 2.12572ZM22.7038 2.26453C22.5765 2.26193 22.4505 2.27571 22.3258 2.30582C22.0781 2.36507 21.8642 2.49314 21.6841 2.69014C21.5056 2.88617 21.3747 3.13756 21.2913 3.44429C21.2149 3.72557 21.1949 4.00284 21.2314 4.276C21.2692 4.54951 21.3696 4.77814 21.5325 4.96195C21.6971 5.1448 21.9382 5.27941 22.2556 5.36571C22.5623 5.44909 22.8443 5.43578 23.1015 5.32589C23.3603 5.21501 23.5741 5.01063 23.7428 4.71271L23.3798 4.50832C23.2589 4.74155 23.1056 4.90053 22.9201 4.98529C22.7345 5.07005 22.5325 5.08282 22.3142 5.02346C22.1347 4.97467 21.9804 4.8831 21.8515 4.7488C21.7226 4.61451 21.6467 4.44421 21.6236 4.238C21.6023 4.03081 21.6256 3.80199 21.6937 3.55152C21.7465 3.3573 21.8285 3.1775 21.9397 3.01208C22.0512 2.84533 22.1973 2.72825 22.3781 2.66091C22.5603 2.59392 22.7646 2.59121 22.9909 2.65275C23.1878 2.70628 23.338 2.79961 23.4414 2.9327C23.5447 3.0658 23.6013 3.2488 23.6114 3.48168L24.0197 3.49556C24.0146 3.20217 23.932 2.95316 23.7719 2.74853C23.6118 2.54389 23.3843 2.40155 23.0897 2.32144C22.9597 2.28612 22.8311 2.26713 22.7038 2.26453ZM12.0106 3.55056C11.9918 3.55114 11.9728 3.5524 11.9536 3.55438C11.8008 3.56837 11.6226 3.63236 11.4191 3.74628L10.4199 4.30575L11.911 6.969L12.9267 6.40041C13.0962 6.30548 13.2309 6.21098 13.3309 6.11682C13.4315 6.02076 13.5042 5.92191 13.5492 5.82038C13.5942 5.71885 13.6128 5.60026 13.6052 5.46452C13.5982 5.32689 13.5597 5.19567 13.4899 5.07092C13.4031 4.91589 13.2843 4.80585 13.1333 4.74082C12.9836 4.67512 12.8149 4.66377 12.6274 4.70673C12.7175 4.57511 12.7654 4.44173 12.7709 4.30662C12.7763 4.17151 12.7472 4.04708 12.6835 3.93323C12.615 3.81091 12.5145 3.71366 12.3819 3.64157C12.2663 3.57683 12.1425 3.5465 12.0106 3.55056ZM11.9752 3.92707C12.0422 3.92417 12.1058 3.93929 12.1661 3.97236C12.2458 4.01524 12.3104 4.08087 12.3599 4.16929C12.4121 4.26255 12.4325 4.35294 12.4211 4.44048C12.4108 4.52734 12.3683 4.60917 12.2936 4.68599C12.2373 4.74455 12.131 4.81757 11.9748 4.90504L11.3989 5.22751L10.9483 4.4227L11.4807 4.12461C11.672 4.01747 11.8142 3.95465 11.9071 3.93601C11.9302 3.93105 11.9529 3.92804 11.9752 3.92707ZM25.2005 4.15055C25.1396 4.15303 25.0785 4.16131 25.0173 4.17527C24.7239 4.24305 24.4815 4.4579 24.29 4.81985C24.1154 5.1499 24.0657 5.44713 24.141 5.7115C24.2175 5.97653 24.3925 6.18141 24.6661 6.32615C24.8367 6.41637 25.0149 6.45957 25.2006 6.45576C25.3876 6.4526 25.5565 6.39905 25.7073 6.29509C25.8599 6.19056 26.0028 6.01248 26.1358 5.76095C26.3 5.45054 26.3433 5.16256 26.2655 4.89689C26.1884 4.62999 26.0156 4.42543 25.7469 4.28328C25.5656 4.18738 25.3835 4.14311 25.2005 4.15055ZM25.2859 4.48334C25.393 4.47803 25.4983 4.50274 25.6018 4.55751C25.765 4.64384 25.8681 4.77843 25.9111 4.96135C25.9559 5.14369 25.9144 5.35572 25.7866 5.59742C25.6509 5.85385 25.4954 6.01578 25.32 6.08316C25.1446 6.15054 24.9746 6.14072 24.8102 6.05375C24.6446 5.96612 24.54 5.83151 24.4964 5.64982C24.4534 5.46691 24.4981 5.25025 24.6305 4.99995C24.7629 4.74966 24.9165 4.59148 25.0912 4.52532C25.1568 4.50052 25.2217 4.48652 25.2859 4.48334ZM12.7224 5.01435C12.7858 5.01648 12.8464 5.03178 12.904 5.06016C12.9956 5.10435 13.0691 5.17608 13.1247 5.27539C13.1722 5.36017 13.1967 5.44512 13.1982 5.53019C13.199 5.61405 13.1817 5.68811 13.1461 5.75254C13.1106 5.81696 13.0563 5.87918 12.9833 5.93915C12.942 5.97339 12.8645 6.02236 12.7506 6.08611L12.0876 6.45741L11.5749 5.54181L12.1908 5.19697C12.3604 5.10204 12.4984 5.04458 12.605 5.02468C12.6451 5.01651 12.6843 5.01308 12.7224 5.01435ZM26.2886 6.76235L26.0364 7.10676L26.3807 7.35895L26.6329 7.01454L26.2886 6.76235Z" fill="#4F44A3" fill-opacity="0.898039"/>
</g>
<path d="M157.553 28.4759C157.237 28.4759 156.946 28.4503 156.677 28.3992C156.413 28.3523 156.202 28.2969 156.044 28.233L156.581 26.4304C156.918 26.5284 157.218 26.5753 157.482 26.5711C157.747 26.5668 157.979 26.4837 158.179 26.3218C158.384 26.1641 158.556 25.8999 158.697 25.5292L158.895 24.9986L155.335 14.9759H157.789L160.052 22.3907H160.154L162.424 14.9759H164.884L160.953 25.983C160.77 26.5029 160.527 26.9482 160.225 27.3189C159.922 27.6939 159.551 27.9794 159.112 28.1755C158.678 28.3757 158.158 28.4759 157.553 28.4759Z" fill="#2A207A"/>
<path d="M147.811 19.0412V24.794H145.497V14.9759H147.709V16.6442H147.824C148.05 16.0945 148.41 15.6577 148.904 15.3338C149.403 15.01 150.019 14.848 150.752 14.848C151.429 14.848 152.019 14.9929 152.522 15.2827C153.029 15.5725 153.421 15.9922 153.698 16.5419C153.98 17.0916 154.118 17.7585 154.114 18.5426V24.794H151.8V18.9006C151.8 18.2443 151.629 17.7308 151.289 17.3601C150.952 16.9894 150.485 16.804 149.889 16.804C149.484 16.804 149.124 16.8935 148.808 17.0725C148.497 17.2472 148.252 17.5007 148.073 17.8331C147.899 18.1655 147.811 18.5682 147.811 19.0412Z" fill="#2A207A"/>
<path d="M137.987 24.9922C137.365 24.9922 136.804 24.8814 136.306 24.6598C135.811 24.434 135.419 24.1016 135.129 23.6627C134.844 23.2237 134.701 22.6825 134.701 22.0391C134.701 21.4851 134.803 21.027 135.008 20.6648C135.213 20.3026 135.492 20.0128 135.845 19.7955C136.199 19.5781 136.597 19.4141 137.041 19.3033C137.488 19.1882 137.95 19.1051 138.428 19.054C139.003 18.9943 139.47 18.9411 139.828 18.8942C140.186 18.8431 140.445 18.7663 140.607 18.6641C140.774 18.5575 140.857 18.3935 140.857 18.1719V18.1335C140.857 17.652 140.714 17.2791 140.428 17.0149C140.143 16.7507 139.732 16.6186 139.195 16.6186C138.628 16.6186 138.178 16.7422 137.846 16.9894C137.518 17.2365 137.296 17.5284 137.181 17.8651L135.021 17.5582C135.191 16.9617 135.472 16.4631 135.865 16.0625C136.257 15.6577 136.736 15.3551 137.303 15.1548C137.869 14.9503 138.496 14.848 139.182 14.848C139.655 14.848 140.126 14.9034 140.595 15.0142C141.063 15.125 141.492 15.3082 141.879 15.5639C142.267 15.8154 142.578 16.1584 142.813 16.5931C143.051 17.0277 143.171 17.571 143.171 18.223V24.794H140.946V23.4453H140.869C140.729 23.7181 140.531 23.9737 140.275 24.2124C140.024 24.4467 139.706 24.6364 139.323 24.7813C138.943 24.9219 138.498 24.9922 137.987 24.9922ZM138.588 23.2919C139.052 23.2919 139.455 23.2003 139.796 23.0171C140.137 22.8296 140.399 22.5824 140.582 22.2756C140.769 21.9688 140.863 21.6342 140.863 21.272V20.1151C140.791 20.1747 140.667 20.2301 140.492 20.2813C140.322 20.3324 140.13 20.3771 139.917 20.4155C139.704 20.4538 139.493 20.4879 139.284 20.5178C139.075 20.5476 138.894 20.5732 138.741 20.5945C138.396 20.6413 138.087 20.7181 137.814 20.8246C137.541 20.9311 137.326 21.0803 137.169 21.272C137.011 21.4595 136.932 21.7024 136.932 22.0007C136.932 22.4269 137.088 22.7486 137.399 22.9659C137.71 23.1832 138.106 23.2919 138.588 23.2919Z" fill="#2A207A"/>
<path d="M123.911 28.4759V14.9759H126.187V16.5994H126.321C126.441 16.3608 126.609 16.1073 126.826 15.8388C127.043 15.5661 127.338 15.3338 127.708 15.1421C128.079 14.946 128.552 14.848 129.127 14.848C129.886 14.848 130.57 15.0419 131.179 15.4297C131.793 15.8132 132.279 16.3821 132.637 17.1364C132.999 17.8864 133.18 18.8068 133.18 19.8977C133.18 20.9759 133.003 21.8921 132.649 22.6463C132.296 23.4006 131.814 23.9759 131.205 24.3722C130.595 24.7685 129.905 24.9666 129.134 24.9666C128.571 24.9666 128.105 24.8729 127.734 24.6854C127.363 24.4979 127.065 24.272 126.839 24.0078C126.617 23.7394 126.445 23.4858 126.321 23.2472H126.225V28.4759H123.911ZM126.181 19.885C126.181 20.5199 126.27 21.076 126.449 21.5533C126.632 22.0306 126.894 22.4034 127.235 22.6719C127.58 22.9361 127.998 23.0682 128.488 23.0682C128.999 23.0682 129.428 22.9318 129.773 22.6591C130.118 22.3821 130.378 22.005 130.553 21.5277C130.732 21.0462 130.821 20.4986 130.821 19.885C130.821 19.2756 130.734 18.7344 130.559 18.2614C130.384 17.7884 130.124 17.4176 129.779 17.1492C129.434 16.8807 129.004 16.7465 128.488 16.7465C127.994 16.7465 127.574 16.8764 127.229 17.1364C126.884 17.3963 126.622 17.7607 126.443 18.2294C126.268 18.6982 126.181 19.25 126.181 19.885Z" fill="#2A207A"/>
<path d="M107.757 24.794V14.9759H109.969V16.6442H110.084C110.288 16.0817 110.627 15.6428 111.1 15.3274C111.573 15.0078 112.138 14.848 112.794 14.848C113.459 14.848 114.019 15.01 114.475 15.3338C114.935 15.6534 115.259 16.0902 115.447 16.6442H115.549C115.766 16.0987 116.133 15.6641 116.648 15.3402C117.168 15.0121 117.784 14.848 118.496 14.848C119.399 14.848 120.136 15.1335 120.707 15.7046C121.278 16.2756 121.564 17.1087 121.564 18.2038V24.794H119.244V18.5618C119.244 17.9524 119.082 17.5071 118.758 17.2259C118.434 16.9404 118.038 16.7976 117.569 16.7976C117.011 16.7976 116.574 16.9723 116.258 17.3217C115.947 17.6669 115.792 18.1165 115.792 18.6705V24.794H113.523V18.4659C113.523 17.9588 113.369 17.554 113.062 17.2514C112.76 16.9489 112.364 16.7976 111.874 16.7976C111.541 16.7976 111.239 16.8828 110.966 17.0533C110.693 17.2195 110.476 17.456 110.314 17.7628C110.152 18.0654 110.071 18.419 110.071 18.8239V24.794H107.757Z" fill="#2A207A"/>
<path d="M101.089 24.9858C100.13 24.9858 99.2988 24.7749 98.5957 24.353C97.8926 23.9311 97.3471 23.3409 96.9593 22.5824C96.5758 21.8239 96.384 20.9375 96.384 19.9233C96.384 18.9091 96.5758 18.0206 96.9593 17.2578C97.3471 16.495 97.8926 15.9027 98.5957 15.4808C99.2988 15.059 100.13 14.848 101.089 14.848C102.047 14.848 102.878 15.059 103.581 15.4808C104.285 15.9027 104.828 16.495 105.211 17.2578C105.599 18.0206 105.793 18.9091 105.793 19.9233C105.793 20.9375 105.599 21.8239 105.211 22.5824C104.828 23.3409 104.285 23.9311 103.581 24.353C102.878 24.7749 102.047 24.9858 101.089 24.9858ZM101.101 23.1321C101.621 23.1321 102.056 22.9894 102.405 22.7038C102.755 22.4141 103.015 22.0263 103.185 21.5405C103.36 21.0547 103.447 20.5135 103.447 19.9169C103.447 19.3161 103.36 18.7727 103.185 18.2869C103.015 17.7969 102.755 17.407 102.405 17.1172C102.056 16.8274 101.621 16.6825 101.101 16.6825C100.569 16.6825 100.126 16.8274 99.7718 17.1172C99.4224 17.407 99.1603 17.7969 98.9856 18.2869C98.8151 18.7727 98.7299 19.3161 98.7299 19.9169C98.7299 20.5135 98.8151 21.0547 98.9856 21.5405C99.1603 22.0263 99.4224 22.4141 99.7718 22.7038C100.126 22.9894 100.569 23.1321 101.101 23.1321Z" fill="#2A207A"/>
<path d="M94.7366 16.1201H92.346C92.2778 15.728 92.1521 15.3807 91.9689 15.0781C91.7856 14.7713 91.5576 14.5114 91.2849 14.2983C91.0122 14.0852 90.7011 13.9254 90.3517 13.8189C90.0065 13.7081 89.6336 13.6527 89.2331 13.6527C88.5214 13.6527 87.8907 13.8317 87.341 14.1897C86.7913 14.5433 86.3609 15.0632 86.0498 15.7493C85.7387 16.4311 85.5832 17.2642 85.5832 18.2486C85.5832 19.25 85.7387 20.0938 86.0498 20.7799C86.3652 21.4617 86.7956 21.9773 87.341 22.3267C87.8907 22.6719 88.5193 22.8445 89.2267 22.8445C89.6187 22.8445 89.9852 22.7933 90.3261 22.6911C90.6713 22.5845 90.9802 22.429 91.253 22.2245C91.5299 22.0199 91.7622 21.7685 91.9497 21.4702C92.1414 21.1719 92.2735 20.831 92.346 20.4475L94.7366 20.4602C94.6471 21.0824 94.4532 21.6662 94.1549 22.2117C93.8609 22.7571 93.4753 23.2387 92.998 23.6563C92.5207 24.0696 91.9625 24.3935 91.3233 24.6279C90.6841 24.858 89.9745 24.973 89.1947 24.973C88.0441 24.973 87.0172 24.7067 86.1138 24.174C85.2103 23.6414 84.4987 22.8722 83.9788 21.8665C83.4589 20.8608 83.199 19.6549 83.199 18.2486C83.199 16.8381 83.4611 15.6321 83.9852 14.6307C84.5093 13.625 85.2231 12.8558 86.1265 12.3232C87.0299 11.7905 88.0527 11.5242 89.1947 11.5242C89.9234 11.5242 90.601 11.6264 91.2274 11.831C91.8538 12.0355 92.412 12.336 92.9021 12.7323C93.3922 13.1243 93.7949 13.6058 94.1102 14.1769C94.4298 14.7436 94.6386 15.3914 94.7366 16.1201Z" fill="#2A207A"/>
<path d="M74.4914 15.3019C74.4318 14.7436 74.1803 14.309 73.7372 13.9979C73.2982 13.6868 72.7272 13.5313 72.0241 13.5313C71.5298 13.5313 71.1058 13.6058 70.7521 13.755C70.3984 13.9041 70.1278 14.1066 69.9403 14.3622C69.7528 14.6179 69.6569 14.9098 69.6526 15.2379C69.6526 15.5107 69.7144 15.7472 69.838 15.9475C69.9658 16.1478 70.1384 16.3182 70.3558 16.4588C70.5731 16.5952 70.8139 16.7102 71.0781 16.804C71.3423 16.8977 71.6086 16.9766 71.8771 17.0405L73.1043 17.3473C73.5987 17.4624 74.0738 17.6179 74.5298 17.8139C74.99 18.01 75.4012 18.2571 75.7634 18.5554C76.1299 18.8537 76.4197 19.2138 76.6327 19.6357C76.8458 20.0576 76.9523 20.5519 76.9523 21.1186C76.9523 21.8857 76.7563 22.5611 76.3643 23.1449C75.9722 23.7245 75.4055 24.1783 74.664 24.5064C73.9268 24.8303 73.034 24.9922 71.9857 24.9922C70.9673 24.9922 70.083 24.8345 69.333 24.5192C68.5873 24.2039 68.0035 23.7436 67.5816 23.1385C67.164 22.5334 66.9381 21.7962 66.9041 20.9269H69.2372C69.2712 21.3828 69.4119 21.7621 69.659 22.0647C69.9062 22.3672 70.2279 22.5931 70.6242 22.7422C71.0248 22.8914 71.4722 22.9659 71.9666 22.9659C72.4822 22.9659 72.9339 22.8892 73.3217 22.7358C73.7137 22.5781 74.0205 22.3608 74.2421 22.0838C74.4637 21.8026 74.5766 21.4745 74.5809 21.0995C74.5766 20.7585 74.4765 20.4773 74.2805 20.2557C74.0845 20.0299 73.8096 19.8424 73.4559 19.6932C73.1065 19.5398 72.6974 19.4034 72.2286 19.2841L70.7393 18.9006C69.6612 18.6236 68.8089 18.2039 68.1825 17.6414C67.5603 17.0746 67.2492 16.3225 67.2492 15.385C67.2492 14.6137 67.458 13.9382 67.8756 13.3587C68.2975 12.7791 68.8707 12.3296 69.5951 12.01C70.3195 11.6861 71.1398 11.5242 72.056 11.5242C72.985 11.5242 73.7989 11.6861 74.4978 12.01C75.2009 12.3296 75.7528 12.7749 76.1533 13.3459C76.5539 13.9127 76.7606 14.5647 76.7734 15.3019H74.4914Z" fill="#2A207A"/>
<path d="M56.8301 24.794V11.7031H65.2164V13.6911H59.2015V17.245H64.6412V19.233H59.2015V24.794H56.8301Z" fill="#2A207A"/>
<path d="M45 24.794V11.7031H50.0114C50.9574 11.7031 51.7436 11.8523 52.37 12.1506C53.0007 12.4446 53.4716 12.8473 53.7827 13.3587C54.098 13.87 54.2557 14.4496 54.2557 15.0973C54.2557 15.63 54.1534 16.0859 53.9489 16.4652C53.7443 16.8402 53.4695 17.1449 53.1243 17.3793C52.7791 17.6136 52.3935 17.782 51.9673 17.8842V18.0121C52.4318 18.0376 52.8771 18.1804 53.3033 18.4403C53.7337 18.696 54.0852 19.0582 54.358 19.527C54.6307 19.9957 54.767 20.5625 54.767 21.2273C54.767 21.9048 54.603 22.5142 54.2749 23.0554C53.9467 23.5923 53.4524 24.0163 52.7919 24.3274C52.1314 24.6385 51.3004 24.794 50.299 24.794H45ZM47.3714 22.8125H49.9219C50.7827 22.8125 51.4027 22.6484 51.782 22.3203C52.1655 21.9879 52.3572 21.5618 52.3572 21.0419C52.3572 20.6541 52.2614 20.3047 52.0696 19.9936C51.8778 19.6783 51.6051 19.4311 51.2514 19.2521C50.8977 19.0689 50.4759 18.9773 49.9858 18.9773H47.3714V22.8125ZM47.3714 17.2706H49.7173C50.1264 17.2706 50.495 17.196 50.8232 17.0469C51.1513 16.8935 51.4091 16.6783 51.5966 16.4013C51.7884 16.12 51.8842 15.7876 51.8842 15.4041C51.8842 14.897 51.7053 14.4794 51.3473 14.1513C50.9936 13.8232 50.4673 13.6591 49.7685 13.6591H47.3714V17.2706Z" fill="#2A207A"/>
<defs>
<clipPath id="clip0_181_703">
<rect width="37" height="37" fill="white"/>
</clipPath>
</defs>
</svg>
