<svg width="72" height="72" viewBox="0 0 72 72" fill="none" xmlns="http://www.w3.org/2000/svg">
<path d="M16.62 25.38L6 36L16.62 46.62L21.9 41.31L16.62 36L21.9 30.69L16.62 25.38ZM55.38 25.38L50.1 30.69L55.38 36L50.1 41.31L55.38 46.62L66 36L55.38 25.38ZM36 55.38L30.69 50.1L25.38 55.38L36 66L46.62 55.38L41.31 50.1L36 55.38ZM25.38 16.62L30.69 21.9L36 16.62L41.31 21.9L46.62 16.62L36 6L25.38 16.62Z" fill="#495696"/>
<path d="M36 45C40.9706 45 45 40.9706 45 36C45 31.0294 40.9706 27 36 27C31.0294 27 27 31.0294 27 36C27 40.9706 31.0294 45 36 45Z" fill="#495696"/>
</svg>
