<?xml version="1.0" encoding="UTF-8" standalone="no"?>
<svg
   width="833"
   height="833"
   viewBox="0 0 833 833"
   fill="none"
   version="1.1"
   id="svg32"
   xmlns="http://www.w3.org/2000/svg"
   xmlns:svg="http://www.w3.org/2000/svg">
  <defs
     id="defs36" />
  <path
     d="m 159.99999,655.50703 c 0,-2.441 22.234,-71.475 24.87,-77.215 7.002,-15.255 18.588,-28.845 31.975,-37.505 6.023,-3.896 24.404,-12.654 26.558,-12.654 0.425,0 24.87,25.712 54.322,57.139 29.453,31.427 56.555,60.225 60.228,63.996 l 6.678,6.857 h -102.315 c -56.274,0 -102.316,-0.278 -102.316,-0.618 z m 160.498,-66.073 c -34.36,-36.659 -62.472,-66.914 -62.472,-67.235 0,-0.661 50.235,-22.437 51.806,-22.458 0.791,-0.01 81.301,138.124 89.162,152.979 l 1.802,3.405 -8.913,-0.02 -8.913,-0.02 z m 114.508,63.286 c 7.861,-14.855 88.371,-152.989 89.162,-152.979 1.99,0.026 51.607,21.804 51.521,22.614 -0.048,0.454 -28.116,30.729 -62.374,67.278 l -62.285,66.452 -8.913,0.02 -8.913,0.02 z m 41.549,-3.96 c 3.892,-4.05 30.965,-32.849 60.163,-63.996 29.197,-31.147 53.438,-56.631 53.868,-56.631 2.212,0 20.599,8.792 26.864,12.845 13.232,8.559 24.639,21.991 31.688,37.314 2.671,5.804 24.862,74.683 24.862,77.167 0,0.366 -46.017,0.666 -102.261,0.666 h -102.26 z m -70.975,-12.189 c -5.882,-10.197 -15.494,-26.84 -21.36,-36.986 l -10.666,-18.448 19.658,-21.792 c 19.469,-21.583 19.698,-21.793 23.788,-21.793 4.09,0 4.319,0.21 23.788,21.793 l 19.658,21.792 -10.666,18.448 c -5.866,10.146 -15.478,26.789 -21.36,36.986 -5.881,10.196 -11.02,18.538 -11.42,18.538 -0.4,0 -5.539,-8.342 -11.42,-18.538 z m -60.645,-104.999 c -11.786,-20.4 -21.173,-37.506 -20.859,-38.013 0.314,-0.508 2.329,-1.45 4.479,-2.095 l 3.908,-1.17 33.888,19.027 c 18.639,10.465 34.193,19.322 34.565,19.682 0.373,0.359 -7.249,9.43 -16.937,20.156 l -17.615,19.503 z m 105.418,18.009 c -9.312,-10.4 -17.011,-19.327 -17.11,-19.839 -0.099,-0.512 15.228,-9.597 34.059,-20.189 l 34.238,-19.259 3.907,1.171 c 2.148,0.644 4.164,1.588 4.479,2.097 0.471,0.762 -39.968,72.283 -42.012,74.304 -0.347,0.343 -8.25,-7.885 -17.561,-18.285 z m -71.446,-48.84 -37.585,-21.191 -0.248,-8.976 -0.248,-8.977 2.28,3.028 c 14.142,18.786 32.9,33.545 50.408,39.662 34.029,11.889 69.463,-2.793 98.122,-40.658 1.405,-1.857 1.516,-1.26 1.29,6.945 l -0.248,8.977 -37.077,20.849 c -20.393,11.467 -37.534,21.003 -38.093,21.191 -0.559,0.188 -17.929,-9.194 -38.601,-20.85 z m 23.364,-8.095 c -13.841,-4.134 -24.818,-11.034 -36.638,-23.03 -16.832,-17.082 -30.986,-41.196 -40.929,-69.729 l -4.159,-11.936 19.531,-0.015 c 20.071,-0.015 23.168,-0.535 25.508,-4.282 0.827,-1.324 -0.107,-9.082 -3.792,-31.49 -2.688,-16.353 -5.123,-30.736 -5.411,-31.963 -0.495,-2.116 0.22,-1.97 14.05,2.876 17.755,6.222 40.009,12.052 46.002,12.052 14.104,0 72.213,-19.389 99.403,-33.167 2.738,-1.388 5.276,-2.227 5.639,-1.865 1.513,1.507 1.277,37.031 -0.329,49.418 -7.24,55.867 -32.96,107.313 -65.698,131.415 -16.561,12.192 -36.716,16.632 -53.177,11.716 z m -83.825,-119.678 c -0.057,-2.162 10.574,-64.856 11.093,-65.419 0.335,-0.364 3.117,0.55 6.183,2.031 l 5.574,2.693 4.775,28.443 c 2.626,15.643 4.803,29.471 4.838,30.728 0.063,2.278 0.007,2.286 -16.19,2.286 -8.939,0 -16.262,-0.343 -16.273,-0.762 z m -22.619,-21.773 c -7.312,-9.74 -11.248,-22.051 -11.308,-35.367 -0.049,-10.925 2.224,-17.769 6.926,-20.85 3.678,-2.41 8.17,-1.278 7.34,1.85 -1.453,5.483 -1.843,29.565 -0.691,42.708 0.677,7.731 1.013,14.275 0.747,14.542 -0.267,0.266 -1.623,-1.031 -3.014,-2.883 z m 239.691,-6.442 c 1.009,-12.175 1.047,-38.722 0.065,-45.417 -0.666,-4.537 -0.562,-4.848 1.819,-5.445 3.621,-0.909 7.385,1.946 9.951,7.548 2.827,6.17 2.964,21.071 0.279,30.135 -2.146,7.239 -8.076,18.897 -10.927,21.477 -2.018,1.826 -2.023,1.787 -1.187,-8.298 z m -224.05,-29.178 c -0.111,-12.796 0.649,-15.601 2.752,-10.159 0.818,2.117 0.629,5.254 -0.781,12.952 l -1.86,10.158 z m 89.787,2.697 c -11.193,-3.044 -25.787,-7.783 -36.399,-11.819 -7.722,-2.937 -7.931,-3.105 -7.11,-5.714 1.599,-5.083 0.976,-16.627 -1.127,-20.874 -2.39,-4.828 -7.465,-10.049 -11.506,-11.838 -2.974,-1.317 -3.002,-1.407 -3.648,-11.966 -1.094,-17.888 -0.936,-20.702 1.127,-20.096 0.978,0.288 17.809,5.576 37.402,11.751 19.594,6.175 36.239,11.227 36.989,11.227 1.073,0 73.218,-22.398 93.252,-28.951 l 4.352,-1.424 2.573,5.791 c 3.618,8.145 7.253,21.135 8.684,31.034 1.16,8.022 1.107,8.659 -1.107,13.232 -2.223,4.593 -2.868,5.064 -14.653,10.702 -34.011,16.273 -80.185,31.701 -94.294,31.506 -2.966,-0.041 -9.507,-1.193 -14.535,-2.561 z m -67.551,-24.644 c -5.247,-2.346 -8.765,-4.536 -8.968,-5.582 -0.183,-0.947 1.257,-3.311 3.2,-5.254 2.631,-2.631 4.404,-3.533 6.946,-3.533 4.258,0 8.507,3.714 9.862,8.619 1.018,3.687 0.223,8.81 -1.446,9.318 -0.528,0.161 -4.846,-1.445 -9.594,-3.568 z m -23.99,-13.907 c -3.839,-5.875 -1.086,-25.208 6.069,-42.618 3.512,-8.545 3.747,-8.709 9.415,-6.554 2.41,0.916 2.411,0.925 2.411,18.595 v 17.679 l -2.904,1.203 c -3.438,1.424 -9.455,7.485 -11.573,11.659 l -1.505,2.965 z m 74.272,-45.157 c -17.319,-5.534 -31.719,-10.086 -31.998,-10.116 -0.279,-0.03 9.549,-5.49 21.84,-12.132 l 22.348,-12.077 2.445,2.561 c 3.935,4.121 10.883,6.658 18.422,6.727 12.184,0.111 22.392,-7.056 23.979,-16.836 1.215,-7.486 -5.389,-16.363 -14.624,-19.658 -11.405,-4.07 -27.808,1.36 -31.662,10.481 -0.958,2.269 -6.828,5.828 -31.001,18.798 -16.4,8.799 -30.156,15.999 -30.57,15.999 -1.097,0 -85.084,-26.495 -86.461,-27.275 -1.119,-0.635 167.179,-54.036 170.296,-54.036 3.124,0 171.414,53.402 170.296,54.039 -1.828,1.042 -169.333,53.689 -170.646,53.634 -0.646,-0.026 -15.344,-4.576 -32.664,-10.109 z m 25.613,-40.406 c -5.684,-3.517 -1.411,-8.323 7.401,-8.323 5.532,0 9.547,1.849 9.943,4.578 0.69,4.757 -11.466,7.382 -17.344,3.745 z"
     fill="#14096d"
     fill-opacity="0.898039"
     id="path2" />
  <circle
     cx="416.5"
     cy="416.50003"
     r="409"
     stroke="#4f44a3"
     stroke-width="3"
     id="circle4"
     style="display:inline" />
  <circle
     cx="-589.01678"
     cy="1.9261206"
     r="415.5"
     stroke="#4f44a3"
     stroke-width="2"
     id="circle6"
     style="display:inline"
     transform="rotate(-134.81264)" />
  <path
     d="m 568.49999,201.89003 c 73.846,49.198 122.5,133.222 122.5,228.61 0,51.763 -14.327,100.179 -39.233,141.5 m -387.267,-370.11 c -73.846,49.198 -122.5,133.222 -122.5,228.61 0,51.763 14.327,100.179 39.233,141.5 m 86.767,89.403 c 42.809,27.589 93.785,43.597 148.5,43.597 54.715,0 105.691,-16.008 148.5,-43.597"
     stroke="#4f44a3"
     stroke-opacity="0.898039"
     stroke-width="11"
     id="path8" />
  <ellipse
     style="display:none;fill:#14096d;fill-opacity:0.898039;stroke-width:4;stroke-opacity:0.9"
     id="path414"
     cx="-562.37646"
     cy="118.81828"
     rx="277.33173"
     ry="278.33655"
     transform="rotate(-125.75491)" />
  <path
     id="text1574"
     style="font-size:96px;font-family:Arial;-inkscape-font-specification:Arial;fill:#4f44a3;fill-opacity:0.898039;stroke-width:4;stroke-opacity:0.9"
     d="m 404.56835,40.156285 c -1.20155,-0.02081 -2.43662,0.0119 -3.70703,0.09961 -4.61401,0.318558 -8.75333,1.387801 -12.41797,3.207032 -3.66465,1.81923 -6.37557,4.309099 -8.13086,7.46875 -1.75744,3.128474 -2.51626,6.422303 -2.27734,9.882812 0.21739,3.148751 1.2101,5.94594 2.97656,8.392578 1.79548,2.413311 4.38746,4.364853 7.7793,5.853516 2.61779,1.166211 7.12827,2.295849 13.53125,3.388672 6.40081,1.061647 10.54667,1.888466 12.43554,2.478515 2.94351,0.893129 5.09417,2.105583 6.45313,3.640625 1.3568,1.503867 2.10929,3.331295 2.25781,5.482422 0.14636,2.119952 -0.3721,4.130702 -1.55664,6.029297 -1.15552,1.865267 -3.02265,3.403479 -5.60156,4.615226 -2.57891,1.21176 -5.59809,1.93687 -9.0586,2.17578 -3.89697,0.26906 -7.45198,-0.15984 -10.66211,-1.28515 -3.21228,-1.15649 -5.64195,-2.774525 -7.28906,-4.853512 -1.61808,-2.112315 -2.74662,-4.86818 -3.38867,-8.269531 l -8.50781,1.339843 c 0.44111,4.574227 1.97256,8.601959 4.59375,12.08593 2.65021,3.45065 6.12729,5.93726 10.42968,7.45703 4.33357,1.51762 9.60267,2.06115 15.80665,1.63282 4.89459,-0.33793 9.22767,-1.53011 13.00195,-3.57618 3.8033,-2.07939 6.63878,-4.79703 8.50586,-8.152334 1.86492,-3.386491 2.67175,-6.903218 2.41992,-10.550781 -0.25399,-3.678739 -1.428,-6.854777 -3.52344,-9.529297 -2.09759,-2.705696 -5.20477,-4.840437 -9.32226,-6.404297 -2.82957,-1.057617 -7.99727,-2.15859 -15.5,-3.300781 -7.47371,-1.17552 -12.13853,-2.497369 -13.99414,-3.966797 -1.8868,-1.467276 -2.91395,-3.431647 -3.08399,-5.894531 -0.19587,-2.836994 0.88393,-5.340371 3.24024,-7.507813 2.38532,-2.20077 6.32166,-3.490315 11.80859,-3.869141 5.2687,-0.363758 9.32036,0.469677 12.1543,2.498047 2.86511,2.026218 4.68044,5.189091 5.44726,9.490235 l 8.65235,-1.25586 c -0.43355,-4.01091 -1.80301,-7.532644 -4.11133,-10.568359 -2.30832,-3.035715 -5.46767,-5.229944 -9.47657,-6.582031 -2.9849,-1.039061 -6.28011,-1.589929 -9.88476,-1.652345 z m -54,7.701172 -44.42578,13.248047 19.63867,65.853506 8.71484,-2.5996 -8.92187,-29.916016 30.9043,-9.216797 -2.31641,-7.771484 -30.90625,9.216797 -6.08008,-20.392578 35.71094,-10.650391 z m 160.57617,3.125 c -2.86624,-0.05864 -5.70236,0.251783 -8.50976,0.929687 -5.57645,1.333851 -10.39177,4.217147 -14.44727,8.652344 -4.01715,4.41324 -6.96451,10.072894 -8.8418,16.978516 -1.72152,6.332666 -2.1714,12.574916 -1.34961,18.724609 0.85195,6.157887 3.11146,11.304997 6.7793,15.443357 3.70619,4.1164 9.13243,7.14697 16.2793,9.08984 6.90562,1.87729 13.25367,1.57772 19.04297,-0.89648 5.82765,-2.49616 10.6407,-7.09758 14.43945,-13.80469 l -8.17188,-4.60156 c -2.7228,5.25086 -6.17339,8.83 -10.35156,10.73828 -4.17816,1.90827 -8.72527,2.19561 -13.64062,0.85937 -4.04085,-1.0985 -7.51378,-3.16012 -10.41602,-6.18359 -2.90224,-3.02348 -4.61179,-6.8575 -5.13086,-11.499996 -0.48071,-4.664456 0.0452,-9.815989 1.57813,-15.455078 1.18867,-4.372555 3.03506,-8.420472 5.53711,-12.144531 2.51024,-3.754214 5.79949,-6.389996 9.87109,-7.90625 4.10175,-1.508056 8.70059,-1.569014 13.79688,-0.183594 4.43286,1.20507 7.81397,3.306197 10.14062,6.302735 2.32665,2.996537 3.60183,7.116401 3.82812,12.359375 l 9.19336,0.3125 c -0.11503,-6.605245 -1.97489,-12.211275 -5.58007,-16.81836 -3.60519,-4.607085 -8.72516,-7.811729 -15.35938,-9.615234 -2.92509,-0.795182 -5.82125,-1.222611 -8.6875,-1.28125 z M 270.40429,79.935582 c -0.42414,0.01307 -0.85158,0.04126 -1.28321,0.08594 -3.44097,0.314881 -7.45231,1.755563 -12.0332,4.320313 l -22.49609,12.5957 33.57031,59.958975 22.86523,-12.80078 c 3.81741,-2.13729 6.85031,-4.26478 9.10157,-6.38476 2.26325,-2.16252 3.90175,-4.38796 4.91406,-6.67383 1.01231,-2.28587 1.43267,-4.95575 1.26172,-8.01172 -0.15895,-3.0985 -1.02522,-6.05281 -2.59766,-8.86133 -1.95409,-3.4902 -4.62907,-5.9677 -8.02734,-7.43164 -3.37101,-1.4792 -7.16871,-1.73458 -11.39063,-0.76758 2.02994,-2.96306 3.10695,-5.966044 3.23047,-9.007804 0.12352,-3.04176 -0.53176,-5.843136 -1.9668,-8.40625 -1.5419,-2.753984 -3.80501,-4.943276 -6.79101,-6.566406 -2.60225,-1.457456 -5.38846,-2.140291 -8.35742,-2.048828 z m -0.79688,8.476562 c 1.50794,-0.0653 2.93993,0.275053 4.29688,1.019532 1.794,0.965371 3.24883,2.44309 4.36328,4.433593 1.17551,2.099572 1.63452,4.134721 1.37695,6.105469 -0.2303,1.955472 -1.18723,3.797752 -2.86914,5.527342 -1.26743,1.31846 -3.66027,2.96228 -7.17773,4.93164 l -12.96485,7.25976 -10.14453,-18.119133 11.98438,-6.710937 c 4.30821,-2.412086 7.5086,-3.82639 9.60156,-4.246094 0.51942,-0.111742 1.03056,-0.179405 1.5332,-0.201172 z m 297.74805,5.03125 c -1.37298,0.05586 -2.74784,0.242266 -4.125,0.556641 -6.6052,1.525894 -12.06415,6.362985 -16.375,14.511715 -3.93092,7.43053 -5.04817,14.12217 -3.35352,20.07422 1.72228,5.96666 5.66239,10.57917 11.82227,13.83789 3.83957,2.03121 7.85149,3.00372 12.0332,2.91797 4.20934,-0.0711 8.01153,-1.27672 11.40625,-3.61719 3.43696,-2.35348 6.65276,-6.36272 9.64844,-12.02539 3.69711,-6.98857 4.66982,-13.47185 2.91992,-19.45313 -1.73529,-6.0089 -5.62639,-10.614183 -11.67578,-13.814444 -4.08127,-2.159081 -8.18184,-3.155855 -12.30078,-2.988282 z m 1.92187,7.492186 c 2.41086,-0.11941 4.78066,0.43694 7.11133,1.66992 3.67383,1.94354 5.995,4.97371 6.96289,9.0918 1.01013,4.10507 0.076,8.87862 -2.80273,14.32031 -3.05413,5.77316 -6.55495,9.41858 -10.50391,10.93554 -3.94896,1.51697 -7.77511,1.29605 -11.47656,-0.6621 -3.72908,-1.97277 -6.0839,-5.00329 -7.06641,-9.09375 -0.96789,-4.11809 0.0385,-8.99581 3.01953,-14.63086 2.98107,-5.63505 6.4387,-9.19621 10.37305,-10.68555 1.47538,-0.5585 2.9363,-0.87367 4.38281,-0.94531 z m -282.84961,11.95507 c 1.42864,0.0479 2.79205,0.39244 4.08985,1.03126 2.0612,0.99484 3.71691,2.60979 4.96875,4.8457 1.06864,1.9087 1.62066,3.82117 1.65429,5.73633 0.0184,1.88788 -0.37231,3.55539 -1.17187,5.00586 -0.79956,1.45046 -2.02231,2.85111 -3.66602,4.20117 -0.92928,0.77099 -2.67516,1.87355 -5.23828,3.30859 l -14.92773,8.35938 -11.54297,-20.61329 13.86719,-7.76367 c 3.8174,-2.13729 6.92479,-3.43087 9.32422,-3.8789 0.90428,-0.18397 1.78539,-0.26118 2.64257,-0.23243 z m 305.42383,39.35352 -5.67773,7.75391 7.75195,5.67773 5.67774,-7.7539 z" />
</svg>
