<svg width="362" height="362" viewBox="0 0 362 362" fill="none" xmlns="http://www.w3.org/2000/svg">
<g clip-path="url(#clip0_181_678)">
<path d="M69.5317 284.866C69.5317 283.805 79.1941 253.805 80.3396 251.311C83.3825 244.681 88.4174 238.775 94.2351 235.012C96.8525 233.319 104.84 229.513 105.776 229.513C105.961 229.513 116.584 240.687 129.383 254.344C142.183 268.001 153.961 280.516 155.557 282.155L158.459 285.135H113.996C89.5404 285.135 69.5317 285.014 69.5317 284.866ZM139.28 256.153C124.348 240.222 112.131 227.074 112.131 226.934C112.131 226.647 133.962 217.183 134.645 217.174C134.989 217.17 169.976 277.199 173.392 283.655L174.175 285.135L170.302 285.126L166.429 285.117L139.28 256.153ZM189.042 283.655C192.458 277.199 227.446 217.17 227.79 217.174C228.654 217.186 250.217 226.65 250.179 227.002C250.158 227.199 237.961 240.356 223.073 256.239L196.006 285.117L192.132 285.126L188.259 285.135L189.042 283.655ZM207.098 281.934C208.79 280.174 220.555 267.659 233.244 254.123C245.932 240.587 256.466 229.513 256.653 229.513C257.614 229.513 265.605 233.334 268.328 235.095C274.078 238.814 279.035 244.652 282.098 251.311C283.259 253.833 292.903 283.766 292.903 284.845C292.903 285.004 272.905 285.135 248.463 285.135H204.023L207.098 281.934ZM176.254 276.637C173.698 272.206 169.521 264.973 166.972 260.564L162.337 252.547L170.88 243.077C179.34 233.697 179.44 233.606 181.217 233.606C182.995 233.606 183.094 233.697 191.555 243.077L200.098 252.547L195.463 260.564C192.913 264.973 188.736 272.206 186.18 276.637C183.624 281.068 181.391 284.693 181.217 284.693C181.043 284.693 178.81 281.068 176.254 276.637ZM149.9 231.007C144.778 222.142 140.698 214.708 140.835 214.488C140.971 214.267 141.847 213.858 142.781 213.577L144.48 213.069L159.206 221.338C167.307 225.885 174.066 229.734 174.228 229.891C174.39 230.047 171.077 233.989 166.867 238.65L159.212 247.126L149.9 231.007ZM195.712 238.834C191.665 234.314 188.319 230.435 188.276 230.212C188.233 229.99 194.894 226.041 203.077 221.438L217.956 213.069L219.654 213.578C220.587 213.858 221.464 214.268 221.6 214.489C221.805 214.82 204.231 245.901 203.343 246.78C203.192 246.929 199.758 243.353 195.712 238.834ZM164.663 217.609L148.33 208.4L148.222 204.499L148.114 200.598L149.105 201.914C155.251 210.078 163.402 216.492 171.011 219.15C185.799 224.317 201.198 217.936 213.652 201.481C214.263 200.674 214.311 200.933 214.213 204.499L214.105 208.4L197.992 217.461C189.13 222.444 181.681 226.588 181.438 226.67C181.195 226.751 173.647 222.674 164.663 217.609ZM174.816 214.091C168.801 212.295 164.031 209.296 158.894 204.083C151.58 196.659 145.429 186.18 141.108 173.78L139.3 168.593L147.788 168.587C156.51 168.58 157.856 168.354 158.873 166.726C159.233 166.151 158.827 162.779 157.225 153.041C156.057 145.935 154.999 139.684 154.874 139.151C154.659 138.231 154.969 138.295 160.98 140.401C168.695 143.105 178.366 145.638 180.971 145.638C187.1 145.638 212.353 137.212 224.169 131.225C225.359 130.622 226.462 130.257 226.619 130.414C227.277 131.069 227.174 146.507 226.476 151.89C223.33 176.168 212.153 198.525 197.926 209C190.729 214.298 181.97 216.227 174.816 214.091ZM138.388 162.082C138.363 161.143 142.983 133.897 143.209 133.653C143.355 133.495 144.564 133.892 145.896 134.535L148.318 135.706L150.393 148.066C151.535 154.864 152.481 160.874 152.496 161.42C152.523 162.41 152.499 162.413 145.46 162.413C141.575 162.413 138.393 162.264 138.388 162.082ZM128.559 152.62C125.381 148.387 123.671 143.037 123.644 137.251C123.623 132.503 124.611 129.529 126.654 128.19C128.253 127.142 130.205 127.634 129.844 128.994C129.213 131.376 129.043 141.842 129.544 147.553C129.838 150.913 129.984 153.757 129.868 153.873C129.752 153.989 129.163 153.425 128.559 152.62ZM232.722 149.821C233.161 144.53 233.177 132.993 232.75 130.084C232.461 128.112 232.506 127.977 233.541 127.717C235.114 127.322 236.75 128.563 237.865 130.998C239.094 133.679 239.153 140.154 237.986 144.093C237.054 147.239 234.477 152.306 233.238 153.427C232.361 154.22 232.359 154.203 232.722 149.821ZM135.356 137.141C135.308 131.58 135.638 130.361 136.552 132.726C136.907 133.646 136.825 135.009 136.212 138.354L135.404 142.769L135.356 137.141ZM174.375 138.313C169.511 136.99 163.168 134.93 158.557 133.176C155.201 131.9 155.11 131.827 155.467 130.693C156.162 128.484 155.891 123.468 154.977 121.622C153.939 119.524 151.733 117.255 149.977 116.478C148.685 115.905 148.672 115.866 148.392 111.277C147.916 103.504 147.985 102.281 148.881 102.544C149.306 102.669 156.621 104.967 165.135 107.651C173.65 110.334 180.884 112.53 181.21 112.53C181.676 112.53 213.028 102.796 221.735 99.9485L223.626 99.3297L224.744 101.846C226.316 105.386 227.896 111.031 228.518 115.333C229.022 118.819 228.999 119.096 228.037 121.083C227.071 123.079 226.791 123.284 221.669 125.734C206.889 132.806 186.823 139.51 180.691 139.426C179.402 139.408 176.56 138.907 174.375 138.313ZM145.019 127.603C142.739 126.584 141.21 125.632 141.122 125.177C141.042 124.766 141.668 123.738 142.512 122.894C143.656 121.751 144.426 121.359 145.531 121.359C147.381 121.359 149.228 122.973 149.817 125.104C150.259 126.707 149.914 128.933 149.188 129.154C148.959 129.224 147.082 128.526 145.019 127.603ZM134.594 121.559C132.925 119.006 134.122 110.605 137.231 103.039C138.757 99.3253 138.859 99.2541 141.322 100.191C142.37 100.589 142.37 100.593 142.37 108.271V115.954L141.108 116.477C139.614 117.096 136.999 119.73 136.079 121.544L135.425 122.832L134.594 121.559ZM166.87 101.935C159.344 99.5304 153.086 97.5523 152.965 97.5392C152.843 97.5262 157.114 95.1534 162.456 92.267L172.168 87.0186L173.23 88.1316C174.94 89.9225 177.96 91.025 181.236 91.055C186.531 91.1032 190.967 87.9886 191.657 83.7385C192.185 80.4853 189.315 76.6275 185.301 75.1956C180.345 73.4269 173.217 75.7866 171.542 79.7504C171.126 80.7364 168.575 82.2831 158.07 87.9195C150.943 91.7433 144.965 94.8723 144.785 94.8723C144.308 94.8723 107.809 83.3582 107.211 83.0193C106.725 82.7433 179.863 59.5366 181.217 59.5366C182.575 59.5366 255.709 82.7437 255.223 83.0206C254.429 83.4734 181.636 106.352 181.065 106.328C180.784 106.317 174.397 104.34 166.87 101.935ZM178.001 84.376C175.531 82.8476 177.388 80.759 181.217 80.759C183.621 80.759 185.366 81.5626 185.538 82.7485C185.838 84.8158 180.555 85.9565 178.001 84.376Z" fill="white" fill-opacity="0.898039"/>
<path d="M358.241 181C358.241 278.887 278.887 358.241 181 358.241C83.1126 358.241 3.75928 278.887 3.75928 181C3.75928 83.1126 83.1126 3.75928 181 3.75928C278.887 3.75928 358.241 83.1126 358.241 181Z" stroke="white"/>
<path d="M54.444 53.6138C124.798 -16.2812 238.492 -15.9094 308.387 54.4442C378.282 124.798 377.91 238.492 307.556 308.387C237.203 378.282 123.509 377.91 53.6136 307.556C-16.2814 237.203 -15.9096 123.509 54.444 53.6138Z" stroke="white" stroke-width="2"/>
<path fill-rule="evenodd" clip-rule="evenodd" d="M56.2095 187.084C56.2095 143.714 78.3381 105.515 111.895 83.1587L117.994 92.3131C87.3684 112.717 67.2095 147.547 67.2095 187.084C67.2095 208.55 73.1482 228.613 83.4696 245.737L74.0486 251.415C62.7231 232.625 56.2095 210.607 56.2095 187.084ZM294.791 187.084C294.791 147.547 274.632 112.717 244.006 92.3131L250.105 83.1587C283.662 105.515 305.791 143.714 305.791 187.084C305.791 210.607 299.277 232.625 287.951 251.415L278.53 245.737C288.852 228.613 294.791 208.55 294.791 187.084ZM181 311.874C156.134 311.874 132.952 304.596 113.486 292.051L119.445 282.805C137.187 294.239 158.31 300.874 181 300.874C203.69 300.874 224.813 294.239 242.555 282.805L248.514 292.051C229.048 304.596 205.866 311.874 181 311.874Z" fill="white" fill-opacity="0.898039"/>
<path d="M175.815 17.4509C175.293 17.4418 174.756 17.456 174.204 17.4942C172.199 17.6326 170.4 18.0973 168.807 18.8879C167.215 19.6784 166.037 20.7605 165.274 22.1336C164.51 23.4931 164.18 24.9245 164.284 26.4284C164.379 27.7968 164.81 29.0123 165.578 30.0756C166.358 31.1243 167.484 31.9724 168.958 32.6194C170.096 33.1262 172.056 33.6171 174.839 34.092C177.62 34.5534 179.422 34.9127 180.243 35.1691C181.522 35.5572 182.457 36.0841 183.047 36.7512C183.637 37.4048 183.964 38.1989 184.028 39.1337C184.092 40.055 183.867 40.9288 183.352 41.7539C182.85 42.5645 182.038 43.233 180.918 43.7596C179.797 44.2862 178.485 44.6013 176.981 44.7051C175.288 44.822 173.743 44.6356 172.348 44.1466C170.952 43.644 169.896 42.9409 169.18 42.0374C168.477 41.1194 167.986 39.9218 167.707 38.4437L164.01 39.0259C164.202 41.0138 164.867 42.7641 166.006 44.2782C167.158 45.7777 168.669 46.8583 170.539 47.5188C172.422 48.1783 174.712 48.4145 177.408 48.2284C179.535 48.0815 181.418 47.5634 183.058 46.6743C184.711 45.7706 185.943 44.5896 186.755 43.1315C187.565 41.6598 187.916 40.1315 187.806 38.5464C187.696 36.9477 187.186 35.5675 186.275 34.4052C185.364 33.2294 184.013 32.3017 182.224 31.6221C180.994 31.1624 178.749 30.684 175.488 30.1876C172.24 29.6768 170.213 29.1023 169.407 28.4638C168.587 27.8261 168.14 26.9725 168.066 25.9021C167.981 24.6693 168.451 23.5814 169.475 22.6394C170.511 21.6831 172.222 21.1226 174.606 20.958C176.896 20.7999 178.657 21.1621 179.888 22.0436C181.133 22.9241 181.922 24.2987 182.255 26.1678L186.015 25.6221C185.827 23.879 185.232 22.3486 184.229 21.0293C183.226 19.7101 181.853 18.7565 180.111 18.1689C178.813 17.7174 177.381 17.478 175.815 17.4509ZM152.348 20.7976L133.042 26.5549L141.576 55.1731L145.363 54.0434L141.486 41.0426L154.916 37.0373L153.91 33.66L140.479 37.6653L137.836 28.8033L153.355 24.1749L152.348 20.7976ZM222.13 22.1556C220.884 22.1302 219.652 22.2651 218.432 22.5597C216.009 23.1393 213.916 24.3923 212.154 26.3197C210.408 28.2376 209.127 30.6972 208.311 33.6982C207.563 36.4502 207.368 39.1629 207.725 41.8354C208.095 44.5114 209.077 46.7482 210.671 48.5467C212.281 50.3355 214.639 51.6526 217.745 52.4969C220.746 53.3127 223.505 53.1825 226.021 52.1073C228.553 51.0225 230.645 49.0229 232.296 46.1081L228.745 44.1084C227.561 46.3903 226.062 47.9457 224.246 48.775C222.43 49.6043 220.454 49.7291 218.318 49.1485C216.562 48.6711 215.053 47.7751 213.792 46.4612C212.53 45.1473 211.788 43.4811 211.562 41.4636C211.353 39.4366 211.582 37.1979 212.248 34.7473C212.764 32.8471 213.567 31.0879 214.654 29.4696C215.745 27.8381 217.174 26.6926 218.944 26.0337C220.726 25.3783 222.725 25.3519 224.94 25.9539C226.866 26.4776 228.335 27.3907 229.346 28.6929C230.357 29.9951 230.912 31.7855 231.01 34.064L235.005 34.1998C234.955 31.3293 234.147 28.8931 232.58 26.891C231.014 24.8889 228.789 23.4962 225.905 22.7124C224.634 22.3669 223.376 22.1811 222.13 22.1556ZM117.511 34.7379C117.326 34.7436 117.141 34.7558 116.953 34.7753C115.458 34.9121 113.714 35.5382 111.724 36.6528L101.948 42.1265L116.536 68.1831L126.473 62.6202C128.132 61.6914 129.45 60.7669 130.428 59.8456C131.412 58.9058 132.124 57.9387 132.564 56.9453C133.004 55.9519 133.186 54.7917 133.112 53.4636C133.043 52.1171 132.667 50.8332 131.983 49.6127C131.134 48.096 129.972 47.0193 128.495 46.3831C127.03 45.7403 125.379 45.6293 123.545 46.0496C124.427 44.7619 124.895 43.4569 124.949 42.135C125.002 40.8131 124.717 39.5957 124.094 38.4819C123.424 37.2851 122.44 36.3337 121.143 35.6283C120.012 34.9949 118.801 34.6982 117.511 34.7379ZM117.164 38.4216C117.82 38.3932 118.442 38.5411 119.032 38.8647C119.811 39.2842 120.444 39.9264 120.928 40.7914C121.439 41.7038 121.638 42.5882 121.526 43.4447C121.426 44.2945 121.01 45.0951 120.279 45.8467C119.729 46.4197 118.689 47.134 117.16 47.9899L111.526 51.1448L107.117 43.2707L112.326 40.3543C114.198 39.306 115.589 38.6914 116.498 38.509C116.724 38.4605 116.946 38.4311 117.164 38.4216ZM246.558 40.6081C245.961 40.6323 245.364 40.7133 244.765 40.85C241.895 41.5131 239.523 43.6151 237.649 47.1564C235.941 50.3855 235.455 53.2935 236.192 55.8801C236.94 58.4731 238.653 60.4775 241.329 61.8937C242.998 62.7764 244.741 63.199 246.559 63.1618C248.388 63.1309 250.04 62.6069 251.516 61.5898C253.009 60.5671 254.407 58.8248 255.709 56.3639C257.315 53.3269 257.738 50.5094 256.977 47.9101C256.223 45.2988 254.532 43.2974 251.903 41.9067C250.13 40.9684 248.348 40.5352 246.558 40.6081ZM247.393 43.864C248.441 43.8121 249.471 44.0538 250.483 44.5897C252.08 45.4343 253.089 46.7511 253.509 48.5407C253.948 50.3247 253.542 52.3991 252.291 54.764C250.964 57.2728 249.443 58.857 247.727 59.5163C246.011 60.1755 244.348 60.0795 242.739 59.2285C241.119 58.3712 240.095 57.0542 239.668 55.2766C239.248 53.487 239.685 51.3673 240.981 48.9184C242.276 46.4696 243.779 44.922 245.488 44.2748C246.13 44.0321 246.764 43.8951 247.393 43.864ZM124.474 49.0593C125.095 49.0801 125.687 49.2299 126.251 49.5075C127.147 49.9398 127.867 50.6416 128.411 51.6133C128.875 52.4428 129.115 53.2739 129.13 54.1062C129.138 54.9266 128.968 55.6512 128.62 56.2816C128.273 56.9119 127.741 57.5206 127.027 58.1073C126.623 58.4423 125.865 58.9215 124.751 59.5451L118.264 63.1779L113.247 54.2199L119.274 50.846C120.933 49.9172 122.283 49.355 123.326 49.1603C123.719 49.0804 124.102 49.0468 124.474 49.0593ZM257.203 66.1613L254.736 69.531L258.105 71.9984L260.572 68.6287L257.203 66.1613Z" fill="white" fill-opacity="0.898039"/>
</g>
<defs>
<clipPath id="clip0_181_678">
<rect width="362" height="362" fill="white"/>
</clipPath>
</defs>
</svg>
