<svg width="72" height="72" viewBox="0 0 72 72" fill="none" xmlns="http://www.w3.org/2000/svg">
<path d="M36 66L35.25 57H34.5C27.4 57 21.375 54.525 16.425 49.575C11.475 44.625 9 38.6 9 31.5C9 24.4 11.475 18.375 16.425 13.425C21.375 8.475 27.4 6 34.5 6C38.05 6 41.363 6.662 44.439 7.986C47.515 9.31 50.215 11.135 52.539 13.461C54.863 15.787 56.687 18.487 58.011 21.561C59.335 24.635 59.998 27.948 60 31.5C60 35.25 59.388 38.85 58.164 42.3C56.94 45.75 55.264 48.95 53.136 51.9C51.008 54.85 48.483 57.525 45.561 59.925C42.639 62.325 39.452 64.35 36 66ZM34.425 47.925C35.275 47.925 36 47.625 36.6 47.025C37.2 46.425 37.5 45.7 37.5 44.85C37.5 44 37.2 43.275 36.6 42.675C36 42.075 35.275 41.775 34.425 41.775C33.575 41.775 32.85 42.075 32.25 42.675C31.65 43.275 31.35 44 31.35 44.85C31.35 45.7 31.65 46.425 32.25 47.025C32.85 47.625 33.575 47.925 34.425 47.925ZM32.25 38.4H36.75C36.75 36.9 36.9 35.85 37.2 35.25C37.5 34.65 38.45 33.55 40.05 31.95C40.95 31.05 41.7 30.075 42.3 29.025C42.9 27.975 43.2 26.85 43.2 25.65C43.2 23.1 42.338 21.187 40.614 19.911C38.89 18.635 36.852 17.998 34.5 18C32.3 18 30.45 18.613 28.95 19.839C27.45 21.065 26.4 22.552 25.8 24.3L30 25.95C30.25 25.1 30.725 24.263 31.425 23.439C32.125 22.615 33.15 22.202 34.5 22.2C35.85 22.198 36.863 22.573 37.539 23.325C38.215 24.077 38.552 24.902 38.55 25.8C38.55 26.65 38.3 27.413 37.8 28.089C37.3 28.765 36.7 29.452 36 30.15C34.25 31.65 33.188 32.838 32.814 33.714C32.44 34.59 32.252 36.152 32.25 38.4Z" fill="#495696"/>
</svg>
