<svg width="72" height="72" viewBox="0 0 72 72" fill="none" xmlns="http://www.w3.org/2000/svg">
<path d="M22.425 63C17.875 63 14 61.4 10.8 58.2C7.6 55 6 51.125 6 46.575C6 42.275 7.438 38.562 10.314 35.436C13.19 32.31 16.777 30.573 21.075 30.225L11.175 10.35C10.675 9.35 10.713 8.375 11.289 7.425C11.865 6.475 12.727 6 13.875 6H26.325C27.475 6 28.513 6.3 29.439 6.9C30.365 7.5 31.102 8.3 31.65 9.3L36 18L40.35 9.3C40.9 8.3 41.638 7.5 42.564 6.9C43.49 6.3 44.527 6 45.675 6H58.125C59.275 6 60.138 6.475 60.714 7.425C61.29 8.375 61.327 9.35 60.825 10.35L51 30.075C55.25 30.475 58.813 32.238 61.689 35.364C64.565 38.49 66.002 42.202 66 46.5C66 51.1 64.4 55 61.2 58.2C58 61.4 54.1 63 49.5 63C49.05 63 48.588 62.988 48.114 62.964C47.64 62.94 47.177 62.877 46.725 62.775C49.475 60.975 51.625 58.638 53.175 55.764C54.725 52.89 55.5 49.802 55.5 46.5C55.5 41.05 53.612 36.438 49.836 32.664C46.06 28.89 41.448 27.002 36 27C30.552 26.998 25.94 28.886 22.164 32.664C18.388 36.442 16.5 41.054 16.5 46.5C16.5 49.9 17.2 53.1 18.6 56.1C20 59.1 22.2 61.325 25.2 62.775C24.75 62.875 24.288 62.938 23.814 62.964C23.34 62.99 22.877 63.002 22.425 63ZM36 60C32.25 60 29.063 58.688 26.439 56.064C23.815 53.44 22.502 50.252 22.5 46.5C22.498 42.748 23.811 39.561 26.439 36.939C29.067 34.317 32.254 33.004 36 33C39.746 32.996 42.934 34.309 45.564 36.939C48.194 39.569 49.506 42.756 49.5 46.5C49.494 50.244 48.182 53.432 45.564 56.064C42.946 58.696 39.758 60.008 36 60ZM36 50.55L39.675 53.325C39.975 53.575 40.275 53.588 40.575 53.364C40.875 53.14 40.975 52.852 40.875 52.5L39.45 47.925L43.125 45.3C43.425 45.05 43.525 44.762 43.425 44.436C43.325 44.11 43.075 43.948 42.675 43.95H38.175L36.75 39.075C36.65 38.725 36.4 38.55 36 38.55C35.6 38.55 35.35 38.725 35.25 39.075L33.825 43.95H29.325C28.925 43.95 28.675 44.113 28.575 44.439C28.475 44.765 28.575 45.052 28.875 45.3L32.55 47.925L31.125 52.5C31.025 52.85 31.125 53.138 31.425 53.364C31.725 53.59 32.025 53.577 32.325 53.325L36 50.55Z" fill="#495696"/>
</svg>
