<svg width="72" height="72" viewBox="0 0 72 72" fill="none" xmlns="http://www.w3.org/2000/svg">
<path d="M36 12C39.1826 12 42.2348 13.2643 44.4853 15.5147C46.7357 17.7652 48 20.8174 48 24C48 27.1826 46.7357 30.2348 44.4853 32.4853C42.2348 34.7357 39.1826 36 36 36C32.8174 36 29.7652 34.7357 27.5147 32.4853C25.2643 30.2348 24 27.1826 24 24C24 20.8174 25.2643 17.7652 27.5147 15.5147C29.7652 13.2643 32.8174 12 36 12ZM36 42C49.26 42 60 47.37 60 54V60H12V54C12 47.37 22.74 42 36 42Z" fill="#495696"/>
</svg>
