<svg width="32" height="32" viewBox="0 0 32 32" fill="none" xmlns="http://www.w3.org/2000/svg">
<path d="M10.4001 2.6665H21.6001C25.8667 2.6665 29.3334 6.13317 29.3334 10.3998V21.5998C29.3334 23.6508 28.5187 25.6178 27.0684 27.0681C25.6181 28.5184 23.6511 29.3332 21.6001 29.3332H10.4001C6.13341 29.3332 2.66675 25.8665 2.66675 21.5998V10.3998C2.66675 8.34883 3.48151 6.38183 4.93179 4.93154C6.38207 3.48126 8.34907 2.6665 10.4001 2.6665ZM10.1334 5.33317C8.86038 5.33317 7.63948 5.83888 6.7393 6.73906C5.83913 7.63923 5.33341 8.86013 5.33341 10.1332V21.8665C5.33341 24.5198 7.48008 26.6665 10.1334 26.6665H21.8667C23.1398 26.6665 24.3607 26.1608 25.2609 25.2606C26.161 24.3604 26.6667 23.1395 26.6667 21.8665V10.1332C26.6667 7.47984 24.5201 5.33317 21.8667 5.33317H10.1334ZM23.0001 7.33317C23.4421 7.33317 23.866 7.50877 24.1786 7.82133C24.4912 8.13389 24.6667 8.55781 24.6667 8.99984C24.6667 9.44186 24.4912 9.86579 24.1786 10.1783C23.866 10.4909 23.4421 10.6665 23.0001 10.6665C22.5581 10.6665 22.1341 10.4909 21.8216 10.1783C21.509 9.86579 21.3334 9.44186 21.3334 8.99984C21.3334 8.55781 21.509 8.13389 21.8216 7.82133C22.1341 7.50877 22.5581 7.33317 23.0001 7.33317ZM16.0001 9.33317C17.7682 9.33317 19.4639 10.0355 20.7141 11.2858C21.9644 12.536 22.6667 14.2317 22.6667 15.9998C22.6667 17.7679 21.9644 19.4636 20.7141 20.7139C19.4639 21.9641 17.7682 22.6665 16.0001 22.6665C14.232 22.6665 12.5363 21.9641 11.286 20.7139C10.0358 19.4636 9.33341 17.7679 9.33341 15.9998C9.33341 14.2317 10.0358 12.536 11.286 11.2858C12.5363 10.0355 14.232 9.33317 16.0001 9.33317ZM16.0001 11.9998C14.9392 11.9998 13.9218 12.4213 13.1717 13.1714C12.4215 13.9216 12.0001 14.939 12.0001 15.9998C12.0001 17.0607 12.4215 18.0781 13.1717 18.8283C13.9218 19.5784 14.9392 19.9998 16.0001 19.9998C17.0609 19.9998 18.0784 19.5784 18.8285 18.8283C19.5787 18.0781 20.0001 17.0607 20.0001 15.9998C20.0001 14.939 19.5787 13.9216 18.8285 13.1714C18.0784 12.4213 17.0609 11.9998 16.0001 11.9998Z" fill="white"/>
</svg>
