<svg width="145" height="61" viewBox="0 0 145 61" fill="none" xmlns="http://www.w3.org/2000/svg">
<path d="M83.1818 52.4495H100.227V48.1167H88.0682V43.328H98.6364V38.8812H88.0682V34.3205H100.114V29.8737H83.1818V52.4495ZM70.3409 48.3448C72.8409 48.3448 74.4318 47.2046 76.25 45.6083L79.3182 48.8009C77.7486 50.5885 75.6787 51.8603 73.3783 52.4505C71.0779 53.0408 68.6536 52.922 66.4214 52.1098C64.1892 51.2976 62.2526 49.8296 60.864 47.8971C59.4754 45.9646 58.6991 43.6572 58.6364 41.2756C58.6049 39.73 58.8869 38.1941 59.4654 36.7613C60.0439 35.3284 60.9068 34.0286 62.0016 32.9408C63.0964 31.853 64.4002 30.9999 65.8338 30.4335C67.2674 29.867 68.8008 29.599 70.3409 29.6457C71.9862 29.5474 73.6329 29.8131 75.1645 30.4239C76.6962 31.0346 78.0754 31.9756 79.2045 33.1803L76.0227 36.7149C74.5041 35.2011 72.4792 34.3072 70.3409 34.2065C69.4406 34.2206 68.5524 34.4165 67.7292 34.7826C66.9061 35.1486 66.1648 35.6773 65.5497 36.3371C64.9346 36.9968 64.4582 37.7741 64.149 38.6226C63.8398 39.4711 63.7041 40.3734 63.75 41.2756C63.75 45.1523 66.4773 48.4588 70.3409 48.4588V48.3448ZM49.3182 52.4495H54.3182V29.8737H49.3182V52.4495ZM34.2045 52.7915C28.1818 52.7915 24.5455 49.485 24.5455 42.7579V29.8737H29.4318V42.6438C29.4318 46.4065 31.25 48.2308 34.3182 48.2308C37.3864 48.2308 39.2045 46.4065 39.2045 42.8719V29.8737H44.0909V42.6438C44.0909 49.485 40.2273 52.7915 34.2045 52.7915ZM9.09091 38.7672L1.70455 44.6962C1.23136 45.2224 0.812557 45.7955 0.454547 46.4065C-0.0550152 47.4653 -0.125887 48.6835 0.25744 49.7946C0.640767 50.9057 1.44708 51.8193 2.5 52.3354L3.06818 52.5635H2.95454C3.9984 52.9556 5.15119 52.9386 6.18315 52.516C7.21511 52.0934 8.05046 51.2961 8.52273 50.2831C8.76612 49.6622 8.9192 49.0094 8.97727 48.3448V38.8812L9.09091 38.7672ZM20.1136 29.8737V50.7392C20 52.265 19.6551 53.7644 19.0909 55.1859C18.0471 57.419 16.2116 59.1818 13.9425 60.1304C11.6734 61.0791 9.13346 61.1455 6.81818 60.3167H6.93182L5.68182 59.8607C4.71423 59.3568 3.83212 58.7026 3.06818 57.9224L4.77272 58.1504C5.97924 58.1451 7.1741 57.9131 8.29546 57.4663C10.5682 56.5541 14.2045 54.1597 14.4318 47.2046V34.4345L20 29.7597L20.1136 29.8737ZM9.65909 0.000895243H14.2045L23.8636 22.8046H18.75L16.7045 17.6738H7.15909L5 22.8046H0L9.65909 0.000895243ZM14.8864 13.341L11.9318 6.04389L8.86364 13.341H14.8864ZM35.1136 23.1467C41.1364 23.1467 45 19.8401 45 12.885V0.114904H40V13.113C40 16.7616 38.1818 18.5859 35.1136 18.5859C32.0455 18.5859 30.2273 16.6476 30.2273 12.999V0.114904H25.3409V13.113C25.3409 19.7261 28.9773 23.1467 35.1136 23.1467ZM47.9545 19.498L50.7955 15.9635C52.658 17.6819 55.0838 18.6554 57.6136 18.6999C59.5455 18.6999 60.7955 17.9018 60.7955 16.5336C60.7955 15.2794 60 14.5952 56.25 13.6831C52.5 12.7709 48.75 11.1747 48.75 6.72799C48.75 2.62332 52.0454 0.000895243 56.7045 0.000895243C59.7488 -0.0343308 62.7144 0.970931 65.1136 2.85136L62.5 6.49996C60.7949 5.17641 58.7405 4.38357 56.5909 4.21958C54.7727 4.21958 53.75 5.13173 53.75 6.1579C53.75 7.64014 54.6591 8.09622 58.6364 9.12239C62.6136 10.1485 65.7954 11.9728 65.7954 15.9635C65.7954 20.5242 62.2727 23.0326 57.5 23.0326C53.9793 23.0353 50.5811 21.7364 47.9545 19.384V19.498ZM74.6591 22.8046H79.5455V4.78968H86.4773V0.114904H67.7273V4.78968H74.6591V22.8046ZM89.6591 0.114904H100C101.184 0.0590302 102.368 0.242158 103.48 0.653437C104.593 1.06472 105.612 1.69579 106.477 2.5093C107.129 3.18849 107.636 3.99356 107.969 4.87559C108.301 5.75762 108.451 6.69819 108.409 7.64014C108.484 9.16423 108.058 10.6708 107.195 11.9276C106.333 13.1844 105.082 14.1218 103.636 14.5953L109.091 22.6906H103.295L98.5227 15.3934H94.6591V22.6906H89.6591V0.114904ZM99.6591 11.1747C102.045 11.1747 103.409 9.92054 103.409 7.9822C103.409 5.92987 101.932 4.78968 99.5455 4.78968H94.6591V11.2887L99.6591 11.1747ZM112.955 22.8046H117.955V0.114904H112.955V22.8046ZM130.682 0.000895243H135.341L145 22.8046H139.773L137.727 17.6738H128.182L126.136 22.8046H121.023L130.682 0.000895243ZM135.909 13.341L132.955 6.04389L130 13.341H135.909Z" fill="#231F20"/>
</svg>
